<?xml version="1.0" ?><svg height="16px" version="1.1" viewBox="0 0 24 24" width="16px" xmlns="http://www.w3.org/2000/svg" xmlns:sketch="http://www.bohemiancoding.com/sketch/ns" xmlns:xlink="http://www.w3.org/1999/xlink"><title/><desc/><defs/><g fill="none" fill-rule="evenodd" id="miu" stroke="none" stroke-width="1"><g id="Artboard-1" transform="translate(-755.000000, -155.000000)"><g id="slice" transform="translate(215.000000, 119.000000)"/><path d="M767.5,178 C773.851275,178 779,172.851275 779,166.5 C779,160.148725 773.851275,155 767.5,155 C761.148725,155 756,160.148725 756,166.5 C756,172.851275 761.148725,178 767.5,178 Z M768.98059,168.956148 L769.355181,161.245732 L767.070063,168.61927 L767.563132,171.408948 L768.98059,168.956148 Z M760.5,166 C760.5,162.134007 763.634007,159 767.5,159 C771.365993,159 774.5,162.134007 774.5,166 L775,166 L775.5,166 C775.5,161.581722 771.918278,158 767.5,158 C763.081722,158 759.5,161.581722 759.5,166 L760,166 L760.5,166 Z" fill="#585C63" id="circle-dashboard-meter-fuel-gauge-glyph"/></g></g></svg>